<svg id="Logo" xmlns="http://www.w3.org/2000/svg" xmlns:xlink="http://www.w3.org/1999/xlink" width="184" height="33.723" viewBox="0 0 184 33.723">
  <defs>
    <clipPath id="clip-path">
      <rect id="Rectangle_3157" data-name="Rectangle 3157" width="184" height="33.723" fill="none"/>
    </clipPath>
  </defs>
  <g id="Group_1" data-name="Group 1" clip-path="url(#clip-path)">
    <path id="Path_47718" data-name="Path 47718" d="M3.166,1.322H6.912V5.078H3.166Zm0,7.55H6.912V28.984A5.1,5.1,0,0,1,1.47,34.219H0v-3.54H1.063c1.288,0,2.1-.585,2.1-1.983Z" transform="translate(0 -0.496)" fill="#00a"/>
    <path id="Path_47719" data-name="Path 47719" d="M30.339,24.034V20.939a7.577,7.577,0,0,0-7.7-7.874c-3.606,0-7.691,2.351-7.691,9.606,0,7.651,4.45,9.5,8.286,9.5a8.614,8.614,0,0,0,6.736-3.021l-2.734-2.315a5.848,5.848,0,0,1-4.074,1.8c-2.582,0-4.456-1.543-4.456-4.593ZM18.711,20.939c.075-2.833,1.719-4.348,3.933-4.348s3.833,1.516,3.941,4.348Z" transform="translate(-5.615 -4.906)" fill="#00a"/>
    <path id="Path_47720" data-name="Path 47720" d="M43.221,4.347h3.749v5.66H49.7v2.871h-2.73V23.731c0,1.039.407,1.4,1.331,1.4h1.4v3.541H47.749a4.273,4.273,0,0,1-4.528-4.6V12.878H41.339V10.007h1.882Z" transform="translate(-15.523 -1.632)" fill="#00a"/>
    <path id="Path_47721" data-name="Path 47721" d="M68.274,4.866c2.875,0,4.233,1.73,4.233,3.756,0,2.063-1.359,3.751-4.233,3.751H62.53V4.866ZM58.567,27.539H69.593a7.166,7.166,0,0,0,7.3-7.436c0-2.653-1.4-5.372-4.27-6.036V14c3.051-1.356,3.858-3.462,3.858-5.64,0-4.11-2.654-7.023-7.769-7.023H58.567ZM68.642,15.907c2.945,0,4.268,1.874,4.268,3.938s-1.323,3.936-4.268,3.936H62.53V15.907Z" transform="translate(-21.992 -0.501)" fill="#00a"/>
    <path id="Path_47722" data-name="Path 47722" d="M91.356,1.333h3.749V22.722c0,.844.48,1.276,1.4,1.276h1.3v3.541H96.141c-2.719,0-4.785-1.175-4.785-4.528Z" transform="translate(-34.304 -0.501)" fill="#00a"/>
    <path id="Path_47723" data-name="Path 47723" d="M104.209,13.411h3.756V24.523c0,2.539,1.581,4.01,3.707,4.01,2.1,0,3.688-1.471,3.688-4.01V13.411h3.753V32.074h-3.753v-1.99h-.072a5.956,5.956,0,0,1-4.828,2.214,6.27,6.27,0,0,1-6.252-6.475Z" transform="translate(-39.131 -5.036)" fill="#00a"/>
    <path id="Path_47724" data-name="Path 47724" d="M146.68,24.034V20.939a7.571,7.571,0,0,0-7.688-7.874c-3.608,0-7.7,2.351-7.7,9.606,0,7.651,4.463,9.5,8.285,9.5a8.6,8.6,0,0,0,6.736-3.021l-2.718-2.315a5.865,5.865,0,0,1-4.083,1.8c-2.581,0-4.463-1.543-4.463-4.593Zm-11.636-3.094c.076-2.833,1.73-4.348,3.948-4.348,2.2,0,3.823,1.516,3.938,4.348Z" transform="translate(-49.299 -4.906)" fill="#00a"/>
    <path id="Path_47725" data-name="Path 47725" d="M290.671,2.091h.224c.267,0,.512-.021.512-.267,0-.23-.217-.281-.432-.281h-.3Zm-.332-.858h.739c.443,0,.66.195.66.591a.507.507,0,0,1-.49.563l.559.786h-.389l-.551-.779h-.2v.779h-.332Zm.635,2.351a1.266,1.266,0,0,0,1.3-1.326,1.3,1.3,0,1,0-2.6,0,1.268,1.268,0,0,0,1.3,1.326m0-2.993a1.659,1.659,0,0,1,0,3.318,1.659,1.659,0,1,1,0-3.318" transform="translate(-108.634 -0.222)" fill="#00a"/>
    <path id="Path_47726" data-name="Path 47726" d="M229.4,24.914c-4.4,0-6.923-3.245-6.923-7.211,0-4,2.524-7.247,6.923-7.247,4.291,0,6.923,3.245,6.923,7.247s-2.632,7.211-6.923,7.211M236.255.577V11.321a8.6,8.6,0,0,0-7.284-3.569c-5.769,0-9.518,4.4-9.518,9.951,0,5.516,3.749,9.915,9.518,9.915a8.66,8.66,0,0,0,7.284-3.533v2.993h2.956V.577ZM217.687,8a6.759,6.759,0,0,0-6.2,3.569V8.328h-2.956V27.077h2.956V17.991c0-5.192,2.488-6.994,5.877-6.994a6.646,6.646,0,0,1,1.478.18V8.112A6.276,6.276,0,0,0,217.687,8M194.865,25.239c-2.343,0-3.713-1.335-3.713-3.065,0-2.055,1.622-2.848,3.75-3.245,4.255-.866,5.444-1.01,6.057-1.622v2.2c0,3.245-2.235,5.733-6.093,5.733m9.59,1.839-.576-3.425v-9.7c0-4-2.848-6.2-7.536-6.2-4.218,0-7.607,2.416-7.9,5.985l2.7,1.082c0-3.1,2.308-4.614,5.191-4.614,2.416,0,4.615.829,4.615,3.1,0,2.02-.829,2.308-6.886,3.39-3.641.649-6.093,2.452-6.093,5.624s2.6,5.3,6.274,5.3a8,8,0,0,0,6.815-3.1l.829,2.56ZM174.1,0a13.319,13.319,0,0,0-13.665,13.773c0,8.689,6.418,13.845,13.592,13.845a13.2,13.2,0,0,0,11.61-6.382l-2.488-1.767a9.48,9.48,0,0,1-8.977,5.408c-5.7,0-10.673-3.93-10.673-11.069,0-7.247,5.12-11.069,10.673-11.069a9.549,9.549,0,0,1,8.942,5.336l2.415-1.8A12.823,12.823,0,0,0,174.1,0" transform="translate(-60.243)" fill="#00a"/>
  </g>
</svg>
